# xmcd
#
# Track frame offsets:
#	150
#	21125
#	40582
#	55785
#	75490
#	98660
#	121162
#	138765
#	148330
#	178172
#	196545
#	208297
#	223887
#	237925
#	251155
#	265237
#
# Disc length: 3877 seconds
#
# Revision: 0
# Processed by: cddbd v1.5.2PL0 Copyright (c) Steve Scherf et al.
# Submitted via: audiograbber 1.83.01
#
DISCID=e30f2310
DTITLE=The Roy Hargrove, McBride, Scott Trio (Parker's Mood) - Parker's Mood
DYEAR=1995
DGENRE=Jazz
TTITLE0=Klactoveesedstene
TTITLE1=Parker's mood
TTITLE2=Marmaduke
TTITLE3=Steeplechase
TTITLE4=Laura
TTITLE5=Dexterity
TTITLE6=Yardbird suite
TTITLE7=Red cross
TTITLE8=Repetition
TTITLE9=Laird baird
TTITLE10=Dewey square
TTITLE11=Card board
TTITLE12=April in Paris
TTITLE13=Chasin' the bird
TTITLE14=Bongo beep
TTITLE15=Star eyes
EXTD=
EXTT0=
EXTT1=
EXTT2=
EXTT3=
EXTT4=
EXTT5=
EXTT6=
EXTT7=
EXTT8=
EXTT9=
EXTT10=
EXTT11=
EXTT12=
EXTT13=
EXTT14=
EXTT15=
PLAYORDER=
